PathFileType	3	(X/Y/Z)	RCH0000002 BBF 06.c3d
DataRate	CameraRate	NumFrames	NumMarkers	Units	OrigDataRate	OrigDataStartFrame	OrigNumFrames
100.0	100.0	12	23	mm	100.0	417	380
Frame#	Time	LASI			RASI			LPAT			LKNE			LANK			LMED			LTOE			RPAT			RKNE			RANK			RTOE			RMED			RHEE			RPSI			T2			T10			LPSI			LHEE			MAN			RTHI			LTHI			RTIB			LTIB			
		X1	Y1	Z1	X2	Y2	Z2	X3	Y3	Z3	X4	Y4	Z4	X5	Y5	Z5	X6	Y6	Z6	X7	Y7	Z7	X8	Y8	Z8	X9	Y9	Z9	X10	Y10	Z10	X11	Y11	Z11	X12	Y12	Z12	X13	Y13	Z13	X14	Y14	Z14	X15	Y15	Z15	X16	Y16	Z16	X17	Y17	Z17	X18	Y18	Z18	X19	Y19	Z19	X20	Y20	Z20	X21	Y21	Z21	X22	Y22	Z22	X23	Y23	Z23	

417	4.160	-140.38709	56.21086	644.30906	-128.23269	-117.84023	671.32299	-40.35884	31.02126	410.83919	-90.14724	76.55213	361.75662	-198.06935	65.50543	117.63244	-171.92032	-1.09860	124.82286	-142.97251	45.50618	101.38776	-177.16687	-72.57760	378.31991	-220.57569	-130.85215	351.94580	-293.15684	-132.53340	83.11213	-256.25213	-88.35543	72.57310	-313.33533	-67.82699	100.46639	-340.41751	-111.96796	120.73901	-241.08331	-63.67458	716.09064	-251.63771	-12.28428	986.19931	-234.64109	-16.00345	797.62398	-247.59245	5.47267	701.92219	-216.00744	16.01485	150.18320	-119.13989	11.49775	961.29482	-173.40989	-197.40821	455.30286	-144.00007	143.82726	476.02653	-248.46971	-199.31733	234.71466	-151.01289	132.38706	265.21278	
418	4.170	-130.55890	55.70776	643.75582	-121.24339	-118.43043	671.27393	-26.88496	27.96939	413.49534	-74.10416	74.37061	362.94190	-170.07808	65.72141	113.75725	-145.77420	-1.37687	121.93929	-114.82552	44.46522	99.85242	-174.35573	-73.38734	377.82192	-218.53674	-131.36917	352.31795	-293.13264	-132.01218	83.73435	-255.88552	-88.14552	72.81225	-312.57629	-67.14256	101.26684	-339.94745	-111.04063	121.74627	-233.54065	-62.22537	715.03911	-242.46073	-12.12325	986.21927	-226.99369	-15.37763	797.25953	-239.12523	6.98112	700.42952	-190.71740	16.71057	145.36494	-110.15009	11.99941	960.35733	-170.12190	-197.75839	455.19173	-130.00650	142.67564	475.68490	-248.18641	-199.42279	235.04341	-128.81776	131.57885	263.57346	
419	4.180	-120.50003	55.18895	642.85870	-114.07548	-118.97508	671.02274	-13.94782	24.41855	415.41210	-58.46589	71.89738	363.60420	-142.49472	66.05021	109.96116	-120.32792	-1.60040	118.95331	-87.33414	43.38292	98.24725	-171.19900	-74.06335	377.21358	-216.13652	-131.77774	352.61065	-293.13056	-131.46436	84.37884	-255.52890	-87.91941	73.04899	-311.80608	-66.42490	102.07454	-339.44966	-110.06309	122.81358	-225.78772	-60.68836	713.75055	-233.24576	-11.81314	985.89825	-219.17408	-14.59499	796.58122	-230.41257	8.56334	698.64920	-165.91925	17.59576	140.49399	-101.06986	12.54203	959.15660	-166.54310	-198.02607	455.00528	-115.94246	141.24777	474.98641	-247.72065	-199.42895	235.36238	-106.75278	130.67112	261.77398	
420	4.190	-110.18501	54.64237	641.65799	-106.67701	-119.49148	670.58260	-1.56374	20.42253	416.55412	-43.30829	69.15825	363.72408	-115.63755	66.36672	106.23102	-95.83163	-1.86451	115.85093	-60.78928	42.18643	96.53794	-167.61982	-74.62488	376.48801	-213.29849	-132.09143	352.81394	-293.10018	-130.92016	85.06244	-255.14694	-87.69490	73.28243	-310.97885	-65.70893	102.90907	-338.86670	-109.07606	123.96574	-217.77127	-59.10256	712.26010	-224.01165	-11.31770	985.24284	-211.13683	-13.67380	795.60535	-221.40585	10.18150	696.63670	-141.86951	18.53680	135.58823	-91.91140	13.14111	957.73538	-162.61401	-198.23598	454.73795	-101.81674	139.56022	473.96401	-246.99292	-199.35920	235.67893	-85.05815	129.60767	259.80387	
421	4.200	-99.59878	54.06297	640.20313	-98.99907	-119.99303	669.96342	10.26403	16.06201	416.90641	-28.70181	66.19621	363.29217	-89.85008	66.55102	102.54520	-72.54769	-2.25858	112.62312	-35.49574	40.81270	94.68923	-163.52757	-75.08953	375.63233	-209.93569	-132.31814	352.91015	-292.97802	-130.41252	85.80108	-254.69661	-87.49085	73.50868	-310.03859	-65.03212	103.78989	-338.12667	-108.12452	125.22812	-209.44494	-57.50958	710.60319	-214.77478	-10.60782	984.26666	-202.83927	-12.64000	794.35427	-212.06752	11.79663	694.45190	-118.84456	19.40102	130.66941	-82.68698	13.80945	956.14139	-158.27140	-198.40702	454.37970	-87.65091	137.64559	472.65056	-245.90496	-199.23506	235.99691	-63.99119	128.34371	257.64570	
422	4.210	-88.73900	53.45352	638.55129	-90.99787	-120.48803	669.17186	21.54499	11.44276	416.47862	-14.70902	63.07136	362.31344	-65.48690	66.50161	98.88181	-50.74027	-2.85518	109.27151	-11.75943	39.21870	92.67302	-158.82259	-75.47246	374.62796	-205.95534	-132.46039	352.87433	-292.68922	-129.97381	86.60844	-254.12862	-87.32501	73.72054	-308.92033	-64.43111	104.73488	-337.14491	-107.25336	126.62465	-200.77174	-55.95258	708.81537	-205.54853	-9.66338	982.99049	-194.24376	-11.52623	792.85645	-202.37405	13.36944	692.15798	-97.12944	20.06934	125.76755	-73.40848	14.55610	954.42571	-153.45035	-198.55119	453.91628	-73.48354	135.55156	471.07864	-244.34480	-199.07515	236.31524	-43.81484	126.85295	255.28283	
423	4.220	-77.61756	52.82499	636.76599	-82.63673	-120.97870	668.21178	32.29955	6.69247	415.30850	-1.38305	59.86012	360.81160	-42.89426	66.14777	95.22681	-30.66143	-3.69994	105.81312	10.12910	37.39005	90.47546	-153.40251	-75.78554	373.45193	-201.26420	-132.51587	352.67590	-292.14977	-129.63238	87.49498	-253.38919	-87.21174	73.90782	-307.55141	-63.93820	105.75922	-335.82619	-106.50285	128.17596	-191.72621	-54.47528	706.93238	-196.34304	-8.47455	981.44245	-185.31985	-10.37056	791.14674	-192.31802	14.86112	689.82054	-77.00223	20.44908	120.92453	-64.08727	15.38552	952.64135	-148.08649	-198.67290	453.33008	-59.37321	133.34001	469.28187	-242.19321	-198.89420	236.62713	-24.78337	125.13406	252.70726	
424	4.230	-66.26138	52.19645	634.91580	-73.88802	-121.46060	667.08540	42.55570	1.95610	413.46364	11.23322	56.65372	358.83266	-22.38650	65.45957	91.58099	-12.53455	-4.80342	102.28352	29.91375	35.34663	88.10229	-147.16944	-76.03661	372.07920	-195.77434	-132.47849	352.28107	-291.26905	-129.40948	88.46736	-252.42186	-87.16015	74.05811	-305.85321	-63.57829	106.87461	-334.06736	-105.90476	129.89765	-182.29604	-53.12056	704.99052	-187.16531	-7.04282	979.65823	-176.04655	-9.21489	789.26654	-181.90934	16.23427	687.50679	-58.71512	20.48553	116.19610	-54.73414	16.29714	950.84189	-142.11824	-198.76871	452.60150	-45.39954	131.08580	467.29730	-239.33073	-198.70231	236.92007	-7.12628	123.21550	249.92669	
425	4.240	-54.71220	51.59437	633.07276	-64.73496	-121.92246	665.79493	52.34459	-2.61003	411.04091	23.10710	53.55563	356.44684	-4.22060	64.45405	87.96467	3.46322	-6.13641	98.73786	47.39254	33.14430	85.58152	-140.03738	-76.22878	370.48590	-189.40860	-132.33956	351.65619	-289.95247	-129.31711	89.52838	-251.16898	-87.17285	74.15842	-303.74296	-63.36678	108.08906	-331.76038	-105.47944	131.79910	-172.48318	-51.92889	703.02698	-178.01954	-5.38141	977.68107	-166.41414	-8.10323	787.26381	-171.17549	17.45398	685.28464	-42.47392	20.17073	111.65199	-45.35944	17.28508	949.08027	-135.48895	-198.82760	451.71092	-31.66163	128.87525	465.16859	-235.64453	-198.50467	237.17682	8.96828	121.15759	246.96957	
426	4.250	-43.02533	51.05136	631.31054	-55.17312	-122.34651	664.34442	61.69550	-6.84537	408.16303	34.21548	50.67782	353.74804	11.42818	63.19625	84.41938	17.21732	-7.62952	95.24928	62.43552	30.87197	82.96290	-131.93880	-76.36009	368.65326	-182.10529	-132.08918	350.77152	-288.10414	-129.35699	90.67763	-249.57279	-87.24582	74.19737	-301.13595	-63.30847	109.40714	-328.79571	-105.23457	133.88292	-162.30433	-50.93643	701.08011	-168.90775	-3.51526	975.56147	-156.42573	-7.07957	785.19269	-160.16047	18.48930	683.22148	-28.41858	19.54781	107.37359	-35.97333	18.33826	947.40769	-128.14896	-198.83189	450.64128	-18.27375	126.80357	462.94890	-231.03452	-198.30158	237.37731	23.36861	119.05126	243.88732	
427	4.260	-31.26728	50.60443	629.70216	-45.21155	-122.70936	662.74196	70.63079	-10.59308	404.97241	44.54359	48.13587	350.85035	24.48569	61.79452	81.00564	28.68856	-9.17777	91.90464	74.99837	28.64416	80.31417	-122.83003	-76.42350	366.57165	-173.82179	-131.71757	349.60525	-285.62969	-129.52094	91.91281	-247.57583	-87.36937	74.16798	-297.94791	-63.39772	110.83089	-325.06641	-105.16528	136.14511	-151.79057	-50.17272	699.18940	-159.83041	-1.48044	973.35659	-146.09814	-6.18560	783.11266	-148.92277	19.31490	681.38250	-16.60777	18.70978	103.44900	-26.58600	19.44085	945.87257	-120.05774	-198.75881	449.38096	-5.35857	124.97119	460.70277	-225.41829	-198.08899	237.50144	36.01084	117.01300	240.75286	
428	4.270	-19.51251	50.29261	628.31723	-34.87341	-122.98339	661.00161	79.16163	-13.70855	401.62242	54.08344	46.04288	347.88161	34.98986	60.39005	77.79699	37.92003	-10.64997	88.79771	85.12932	26.58979	77.71447	-112.69462	-76.40733	364.24458	-164.53688	-131.21634	348.14742	-282.43933	-129.79254	93.23166	-245.12081	-87.53020	74.07081	-294.09777	-63.61979	112.36101	-320.47265	-105.25575	138.57620	-140.98639	-49.65839	697.39518	-150.78726	0.67698	971.12905	-135.46215	-5.45830	781.08706	-137.53218	19.91313	679.82868	-7.01018	17.79202	99.96567	-17.20796	20.57290	944.51964	-111.18614	-198.58261	447.92704	6.96146	123.47851	458.50587	-218.73472	-197.85939	237.53270	46.90446	115.17634	237.65518	
